# Blender 3.4.1
# www.blender.org
mtllib vuilding1.mtl
o Cube.001
v -6.115711 1.545079 -50.276131
v -6.115711 -3.129894 -50.276131
v -4.115711 1.545079 -50.276131
v -4.115711 -3.129894 -50.276131
v -6.115711 1.545079 -48.276131
v -6.115711 -3.129894 -48.276131
v -4.115711 1.545079 -48.276131
v -4.115711 -3.129894 -48.276131
vn -0.0000 1.0000 -0.0000
vn 1.0000 -0.0000 -0.0000
vn -0.0000 -0.0000 1.0000
vn -0.0000 -1.0000 -0.0000
vn -0.0000 -0.0000 -1.0000
vn -1.0000 -0.0000 -0.0000
vt 0.000219 0.801640
vt 0.401148 0.400711
vt 0.700683 0.401148
vt 0.400711 0.000219
vt 0.700246 0.400711
vt 0.999781 0.401148
vt 0.400711 0.801640
vt 0.401148 0.801640
vt 0.401148 0.000219
vt 0.700246 0.801640
vt 0.400711 0.400711
vt 0.700246 0.000219
vt 0.000219 0.401148
vt 0.999781 0.400711
vt 0.700683 0.801640
vt 0.700683 0.400711
vt 0.000219 0.000219
vt 0.999781 0.801640
vt 0.400711 0.401148
vt 0.401148 0.401148
vt 0.999781 0.000219
vt 0.700246 0.401148
vt 0.700683 0.000219
vt 0.000219 0.400711
s 0
usemtl Material
f 1/1/1 5/13/1 7/19/1 3/7/1
f 4/10/2 3/8/2 7/20/2 8/22/2
f 8/23/3 7/21/3 5/14/3 6/16/3
f 6/17/4 2/4/4 4/11/4 8/24/4
f 2/5/5 1/2/5 3/9/5 4/12/5
f 6/18/6 5/15/6 1/3/6 2/6/6
